The Twilight Zone - The Original Series (1959ΓÇô1964)

Complete : 156 episodes

Quality : DVDRip - x264 + AC3



Mediainfo output :



General

Format                                   : Matroska
Format version                           : Version 2
Encoded date                             : UTC 2009-08-28 01:01:50
Writing application                      : mkvmerge v2.9.8 ('C'est le bon') built on Aug 13 2009 12:49:06
Writing library                          : libebml v0.7.7 + libmatroska v0.8.1

Video
Format                                   : AVC
Format/Info                              : Advanced Video Codec
Format profile                           : High@L4.1
Format settings, CABAC                   : Yes
Format settings, ReFrames                : 8 frames
Codec ID                                 : V_MPEG4/ISO/AVC
Duration                                 : 25mn 7s
Bit rate                                 : 1 800 Kbps
Width                                    : 712 pixels
Height                                   : 480 pixels
Display aspect ratio                     : 4:3
Frame rate mode                          : Constant
Frame rate                               : 23.976 fps
Color space                              : YUV
Chroma subsampling                       : 4:2:0
Bit depth                                : 8 bits
Scan type                                : Progressive
Bits/(Pixel*Frame)                       : 0.220
Stream size                              : 316 MiB (87%)
Writing library                          : x264 core 68 r1183M f21daff
Encoding settings                        : cabac=1 / ref=8 / deblock=1:-2:-2 / analyse=0x3:0x133 / me=tesa / subme=9 / psy_rd=1.0:0.0 / mixed_ref=1 / me_range=32 / chroma_me=1 / trellis=0 / 8x8dct=1 / cqm=0 / deadzone=21,11 / chroma_qp_offset=-2 / threads=6 / nr=0 / decimate=0 / mbaff=0 / bframes=5 / b_pyramid=1 / b_adapt=2 / b_bias=0 / direct=3 / wpredb=1 / keyint=250 / keyint_min=25 / scenecut=40 / rc=2pass / bitrate=1800 / ratetol=1.0 / qcomp=0.60 / qpmin=10 / qpmax=51 / qpstep=4 / cplxblur=20.0 / qblur=0.5 / vbv_maxrate=17500 / vbv_bufsize=14000 / ip_ratio=1.40 / pb_ratio=1.30 / aq=1:1.00

Audio
Format                                   : AC-3
Format/Info                              : Audio Coding 3
Mode extension                           : CM (complete main)
Format settings, Endianness              : Big
Codec ID                                 : A_AC3
Duration                                 : 25mn 7s
Bit rate mode                            : Constant
Bit rate                                 : 224 Kbps
Channel(s)                               : 2 channels
Channel positions                        : Front: L R
Sampling rate                            : 48.0 KHz
Bit depth                                : 16 bits
Compression mode                         : Lossy
Stream size                              : 40.3 MiB (11%)
Language                                 : English
